<?xml version="1.0" encoding="UTF-8" standalone="no"?>
<!DOCTYPE svg PUBLIC "-//W3C//DTD SVG 1.1//EN"
 "http://www.w3.org/Graphics/SVG/1.1/DTD/svg11.dtd">
<!-- Generated by graphviz version 2.40.1 (20161225.0304)
 -->
<!-- Title: G Pages: 1 -->
<svg width="273pt" height="66pt"
 viewBox="0.00 0.00 273.20 66.20" xmlns="http://www.w3.org/2000/svg" xmlns:xlink="http://www.w3.org/1999/xlink">
<g id="graph0" class="graph" transform="scale(1 1) rotate(0) translate(21.6 44.6)">
<title>G</title>
<polygon fill="#111111" stroke="transparent" points="-21.6,21.6 -21.6,-44.6 251.6,-44.6 251.6,21.6 -21.6,21.6"/>
<!-- common/utils/hashtagExtractor.js -->
<g id="node1" class="node">
<title>common/utils/hashtagExtractor.js</title>
<path fill="none" stroke="#cfffac" d="M222.3333,-23C222.3333,-23 7.6667,-23 7.6667,-23 3.8333,-23 0,-19.1667 0,-15.3333 0,-15.3333 0,-7.6667 0,-7.6667 0,-3.8333 3.8333,0 7.6667,0 7.6667,0 222.3333,0 222.3333,0 226.1667,0 230,-3.8333 230,-7.6667 230,-7.6667 230,-15.3333 230,-15.3333 230,-19.1667 226.1667,-23 222.3333,-23"/>
<text text-anchor="middle" x="115" y="-7.8" font-family="Arial" font-size="14.00" fill="#cfffac">common/utils/hashtagExtractor.js</text>
</g>
</g>
</svg>
